# xmcd CD database file
#
# Track frame offsets:
#	150
#	20876
#	37204
#	58734
#	76337
#	90726
#	118074
#	134609
#
# Disc length: 1947 seconds
#
# Revision: 0
# Processed by: cddbd v1.5.2PL0 Copyright (c) Steve Scherf et al.
# Submitted via: CDex 1.70beta2
#
DISCID=73079908
DTITLE=Ghetto Brothers  - Power-Fuerza
DYEAR=1900
DGENRE=Salsa
TTITLE0=Girl from the mountain
TTITLE1=There is something in my heart
TTITLE2=Got this happy feeling
TTITLE3=Mastica, chupa y jala
TTITLE4=You say that you're my friend
TTITLE5=Viva Puerto Rico libre
TTITLE6=I saw a tear
TTITLE7=Ghetto brothers power
EXTD=
EXTT0=
EXTT1=
EXTT2=
EXTT3=
EXTT4=
EXTT5=
EXTT6=
EXTT7=
PLAYORDER=
